<?xml version="1.0" encoding="UTF-8"?>
<svg xmlns="http://www.w3.org/2000/svg" version="1.1" xmlns:xlink="http://www.w3.org/1999/xlink" viewBox="0 0 1176.29 1176.29">
  <defs>
    <style>
      .cls-1 {
        fill: url(#_未命名的渐变_352-2);
      }

      .cls-2 {
        fill: url(#_未命名的渐变_352-3);
      }

      .cls-2, .cls-3, .cls-4, .cls-5 {
        opacity: .85;
      }

      .cls-6 {
        fill: none;
      }

      .cls-3 {
        fill: url(#_未命名的渐变_5);
      }

      .cls-4 {
        fill: url(#_未命名的渐变_2-2);
      }

      .cls-7 {
        fill: url(#_未命名的渐变_217);
      }

      .cls-5 {
        fill: url(#_未命名的渐变_352);
      }

      .cls-8 {
        fill: url(#_未命名的渐变_5-2);
      }

      .cls-9 {
        fill: url(#_未命名的渐变_2);
      }
    </style>
    <linearGradient id="_未命名的渐变_2" data-name="未命名的渐变 2" x1="840.83" y1="861.75" x2="646.32" y2="337.03" gradientUnits="userSpaceOnUse">
      <stop offset="0" stop-color="#ff7045"/>
      <stop offset=".1" stop-color="#ff8145"/>
      <stop offset=".25" stop-color="#ff9545"/>
      <stop offset=".42" stop-color="#ffa345"/>
      <stop offset=".63" stop-color="#ffab45"/>
      <stop offset="1" stop-color="#ffae45"/>
    </linearGradient>
    <linearGradient id="_未命名的渐变_5" data-name="未命名的渐变 5" x1="581.41" y1="282.24" x2="419.28" y2="589.68" gradientUnits="userSpaceOnUse">
      <stop offset="0" stop-color="#5a02e6"/>
      <stop offset=".28" stop-color="#6e24f0"/>
      <stop offset=".56" stop-color="#7e40f8"/>
      <stop offset=".81" stop-color="#8851fd"/>
      <stop offset="1" stop-color="#8c57ff"/>
    </linearGradient>
    <linearGradient id="_未命名的渐变_217" data-name="未命名的渐变 217" x1="642.11" y1="719.36" x2="845.67" y2="894.27" gradientUnits="userSpaceOnUse">
      <stop offset="0" stop-color="#0085f2"/>
      <stop offset=".08" stop-color="#008cf3"/>
      <stop offset=".47" stop-color="#00aff9"/>
      <stop offset=".79" stop-color="#00c4fd"/>
      <stop offset="1" stop-color="#0cf"/>
    </linearGradient>
    <linearGradient id="_未命名的渐变_352" data-name="未命名的渐变 352" x1="372.98" y1="926.71" x2="619.51" y2="675.66" gradientUnits="userSpaceOnUse">
      <stop offset="0" stop-color="#00d7db"/>
      <stop offset="1" stop-color="#00f5b0"/>
    </linearGradient>
    <linearGradient id="_未命名的渐变_5-2" data-name="未命名的渐变 5" x1="588.66" y1="286.06" x2="426.53" y2="593.5" xlink:href="#_未命名的渐变_5"/>
    <linearGradient id="_未命名的渐变_352-2" data-name="未命名的渐变 352" x1="350.24" y1="904.39" x2="596.77" y2="653.33" xlink:href="#_未命名的渐变_352"/>
    <linearGradient id="_未命名的渐变_352-3" data-name="未命名的渐变 352" x1="311.26" y1="866.11" x2="557.79" y2="615.05" xlink:href="#_未命名的渐变_352"/>
    <linearGradient id="_未命名的渐变_2-2" data-name="未命名的渐变 2" x1="864.11" y1="853.5" x2="669.6" y2="328.77" xlink:href="#_未命名的渐变_2"/>
  </defs>
  <!-- Generator: Adobe Illustrator 28.6.0, SVG Export Plug-In . SVG Version: 1.2.0 Build 709)  -->
  <g>
    <g id="_图层_1" data-name="图层_1">
      <g>
        <path class="cls-9" d="M860.75,820.91c23.93,21.71,60.95,19.76,82.48-4.32h0c9.16-26.69,7.92-56.76-5.47-83.63l-218.8-439.06c-13.96-28.02-42.57-45.73-73.88-45.73h-113.88c-20.79,0-40.36,7.85-55.27,21.3,33.42-10.1,69.26,5.36,84.84,36.62l220.73,442.94h0s0,0,0,0l79.25,71.88Z"/>
        <path class="cls-3" d="M560.78,306.09l27.37,54.93,27.37-54.93c15.58-31.26,51.42-46.72,84.84-36.62-14.91-13.45-34.48-21.3-55.27-21.3h-113.88s-.02,0-.04,0c-2.34,0-4.66.13-6.97.33-.66.06-1.31.14-1.96.21-1.77.19-3.52.44-5.25.74-.59.1-1.17.2-1.75.31-4.64.92-9.18,2.22-13.55,3.9-.3.11-.58.24-.88.35-2.02.8-4.01,1.68-5.95,2.64-.2.1-.4.19-.6.29-6.63,3.33-12.8,7.53-18.33,12.52,0,0,0,0,0,0,33.42-10.1,69.26,5.36,84.84,36.62Z"/>
        <path class="cls-7" d="M860.75,820.91l-79.25-71.88-83.95-76.15c-62.07-56.31-156.74-56.31-218.81,0h0l-38.28,34.72c25.27-17.7,59.42-15.55,82.26,5.18l213.22,193.41c17.62,15.98,40.48,23.3,62.96,21.73,14.88-1.04,29.59-5.94,42.51-14.93l61.21-42.6h0c19.54-13.6,33.34-32.64,40.6-53.8-21.52,24.08-58.55,26.03-82.48,4.32Z"/>
        <path class="cls-5" d="M522.72,712.77l65.42,59.35,65.42-59.35c22.85-20.72,57-22.87,82.26-5.18l-38.28-34.72c-62.07-56.31-156.74-56.31-218.81,0l-38.28,34.72h0c25.26-17.7,59.42-15.55,82.26,5.18Z"/>
        <path class="cls-8" d="M233.07,816.59c7.26,21.16,21.06,40.2,40.6,53.8h0s61.21,42.6,61.21,42.6c12.92,8.99,27.63,13.89,42.51,14.93-31.11-18.9-42.6-58.49-26.34-91.11l43.74-87.78h0l193.36-388.01-27.37-54.93c-15.58-31.26-51.42-46.72-84.84-36.62-7.54,6.8-13.91,15.02-18.6,24.43l-218.8,439.06c-13.39,26.87-14.63,56.94-5.47,83.63"/>
        <path class="cls-6" d="M334.88,912.98c12.92,8.99,27.63,13.89,42.51,14.93-31.11-18.9-42.6-58.49-26.34-91.11l43.74-87.78"/>
        <path class="cls-1" d="M522.72,712.77c-22.85-20.72-57-22.87-82.26-5.18l-45.67,41.43h0l-43.74,87.78c-16.26,32.62-4.77,72.22,26.34,91.11h0c22.48,1.58,45.34-5.74,62.96-21.73l147.79-134.07-65.42-59.35Z"/>
        <path class="cls-2" d="M351.05,836.8l43.74-87.78-79.25,71.88c-23.93,21.71-60.95,19.76-82.48-4.32,7.26,21.16,21.06,40.2,40.6,53.8h0s61.21,42.6,61.21,42.6c12.92,8.99,27.63,13.89,42.51,14.93-31.11-18.9-42.6-58.49-26.34-91.11Z"/>
        <path class="cls-4" d="M798.9,927.91c14.88-1.04,29.59-5.94,42.51-14.93l61.21-42.6h0c19.54-13.6,33.34-32.64,40.6-53.8-21.52,24.08-58.55,26.03-82.48,4.32l-79.25-71.88h0s43.74,87.78,43.74,87.78c16.26,32.62,4.77,72.22-26.34,91.11Z"/>
      </g>
      <rect class="cls-6" width="1176.29" height="1176.29"/>
    </g>
  </g>
</svg>