<?xml version="1.0" encoding="UTF-8"?>
<svg xmlns="http://www.w3.org/2000/svg" version="1.1" xmlns:xlink="http://www.w3.org/1999/xlink" viewBox="0 0 4281.66 1176.29">
  <defs>
    <style>
      .cls-1 {
        fill: url(#_未命名的渐变_352-2);
      }

      .cls-2 {
        fill: url(#_未命名的渐变_352-3);
      }

      .cls-2, .cls-3, .cls-4, .cls-5 {
        opacity: .85;
      }

      .cls-6 {
        fill: none;
      }

      .cls-3 {
        fill: url(#_未命名的渐变_5);
      }

      .cls-4 {
        fill: url(#_未命名的渐变_2-2);
      }

      .cls-7 {
        fill: url(#_未命名的渐变_217);
      }

      .cls-5 {
        fill: url(#_未命名的渐变_352);
      }

      .cls-8 {
        fill: url(#_未命名的渐变_5-2);
      }

      .cls-9 {
        fill: #474452;
      }

      .cls-10 {
        fill: url(#_未命名的渐变_2);
      }
    </style>
    <linearGradient id="_未命名的渐变_2" data-name="未命名的渐变 2" x1="852.32" y1="850.09" x2="657.81" y2="325.36" gradientUnits="userSpaceOnUse">
      <stop offset="0" stop-color="#ff7045"/>
      <stop offset=".1" stop-color="#ff8145"/>
      <stop offset=".25" stop-color="#ff9545"/>
      <stop offset=".42" stop-color="#ffa345"/>
      <stop offset=".63" stop-color="#ffab45"/>
      <stop offset="1" stop-color="#ffae45"/>
    </linearGradient>
    <linearGradient id="_未命名的渐变_5" data-name="未命名的渐变 5" x1="592.9" y1="270.58" x2="430.77" y2="578.02" gradientUnits="userSpaceOnUse">
      <stop offset="0" stop-color="#5a02e6"/>
      <stop offset=".28" stop-color="#6e24f0"/>
      <stop offset=".56" stop-color="#7e40f8"/>
      <stop offset=".81" stop-color="#8851fd"/>
      <stop offset="1" stop-color="#8c57ff"/>
    </linearGradient>
    <linearGradient id="_未命名的渐变_217" data-name="未命名的渐变 217" x1="653.6" y1="707.7" x2="857.16" y2="882.6" gradientUnits="userSpaceOnUse">
      <stop offset="0" stop-color="#0085f2"/>
      <stop offset=".08" stop-color="#008cf3"/>
      <stop offset=".47" stop-color="#00aff9"/>
      <stop offset=".79" stop-color="#00c4fd"/>
      <stop offset="1" stop-color="#0cf"/>
    </linearGradient>
    <linearGradient id="_未命名的渐变_352" data-name="未命名的渐变 352" x1="384.47" y1="915.05" x2="631" y2="663.99" gradientUnits="userSpaceOnUse">
      <stop offset="0" stop-color="#00d7db"/>
      <stop offset="1" stop-color="#00f5b0"/>
    </linearGradient>
    <linearGradient id="_未命名的渐变_5-2" data-name="未命名的渐变 5" x1="600.15" y1="274.4" x2="438.02" y2="581.84" xlink:href="#_未命名的渐变_5"/>
    <linearGradient id="_未命名的渐变_352-2" data-name="未命名的渐变 352" x1="361.73" y1="892.72" x2="608.26" y2="641.67" xlink:href="#_未命名的渐变_352"/>
    <linearGradient id="_未命名的渐变_352-3" data-name="未命名的渐变 352" x1="322.75" y1="854.44" x2="569.28" y2="603.39" xlink:href="#_未命名的渐变_352"/>
    <linearGradient id="_未命名的渐变_2-2" data-name="未命名的渐变 2" x1="875.6" y1="841.83" x2="681.09" y2="317.11" xlink:href="#_未命名的渐变_2"/>
  </defs>
  <!-- Generator: Adobe Illustrator 28.6.0, SVG Export Plug-In . SVG Version: 1.2.0 Build 709)  -->
  <g>
    <g id="_图层_1" data-name="图层_1">
      <g>
        <g>
          <path class="cls-9" d="M1623.44,527.36h-35.86v-44.7h35.86v-42.73l54.52-11.3v54.03h73.18v44.7h-73.18v126.73c0,22.92,8.68,34.38,26.03,34.38,5.56,0,11.29-.98,17.19-2.94,5.9-1.97,10.31-3.93,13.26-5.9l4.91-2.95,16.21,40.77c-18.66,12.12-38.15,18.17-58.46,18.17-49.11,0-73.67-27.67-73.67-83.01v-125.25Z"/>
          <path class="cls-9" d="M3028.41,417.34h56.98v269.16h190.58v49.12h-247.56v-318.28Z"/>
          <path class="cls-9" d="M3327.52,417.34h49.61l44.21,61.89,72.21,102.17,71.71-101.68,44.21-62.37h49.61v318.28h-56.98v-221.03c-6.55,11.8-16.7,27.67-30.45,47.65l-78.1,111.99-79.08-112.97-29.96-46.67v221.03h-56.98v-318.28Z"/>
          <path class="cls-9" d="M3961.93,602.97c-6.4-11.14-15.79-20.43-27.93-27.59-12.04-7.1-24.4-13.02-36.77-17.59-12.4-4.59-27.39-8.82-44.53-12.59-22.91-5.31-39.82-10.86-50.25-16.48-10.31-5.53-15.32-13.44-15.32-24.18,0-8.17,3.33-15.16,9.89-20.76,6.68-5.7,14.09-9.62,22.03-11.62,8.03-2.02,16.16-3.04,24.16-3.04,32.19,0,62.39,8.55,89.75,25.41l.93.57,22.89-43.92-.77-.51c-33.52-22.09-71.47-33.3-112.8-33.3-31.62,0-59.07,7.78-81.59,23.13-22.64,15.43-34.12,37.14-34.12,64.51,0,11.79,2.42,22.61,7.19,32.17,4.75,9.54,10.65,17.44,17.57,23.5,6.87,6.04,16.14,11.74,27.57,16.96,11.43,5.23,21.98,9.23,31.38,11.9,9.48,2.69,21.32,5.64,35.2,8.77,14.17,3.2,24.68,5.98,32.09,8.49,7.32,2.47,14.6,6.79,21.62,12.83,6.89,5.93,10.38,13.23,10.38,21.71,0,12.8-6.72,23.18-19.98,30.83-13.44,7.77-29.36,11.7-47.31,11.7-38.95,0-74.04-12.03-104.29-35.77l-.96-.75-22.52,42.73-.37.7.59.53c32.56,29.39,75.32,44.29,127.07,44.29,34.53,0,64.93-8.17,90.34-24.3,25.57-16.21,38.53-39.76,38.53-69.98,0-14.33-3.24-27.23-9.65-38.37Z"/>
          <path class="cls-9" d="M2564.84,573.91c0-50.39-40.85-91.24-91.25-91.24-30.96,0-58.28,15.46-74.78,39.05v-39.05h-54.52v252.96h54.52v-154.78c0-30.79,24.96-55.75,55.75-55.75s55.75,24.96,55.75,55.75v154.78h54.52v-161.71h0Z"/>
          <path class="cls-9" d="M2015.39,573.91c0-50.39-40.85-91.24-91.25-91.24-30.96,0-58.28,15.46-74.78,39.05v-104.37h-54.52v318.28h54.52v-154.78c0-30.79,24.96-55.75,55.75-55.75s55.75,24.96,55.75,55.75v154.78h54.52v-161.71h0Z"/>
          <path class="cls-9" d="M2802.55,482.66v39.6c-20.44-24.34-49.29-39.6-81.37-39.6-61.94,0-112.16,56.62-112.16,126.48s50.21,126.48,112.16,126.48c32.07,0,60.93-15.26,81.37-39.6v39.6h54.52v-252.96h-54.52ZM2733.54,683.07c-38.11,0-69.01-33.1-69.01-73.92s30.9-73.92,69.01-73.92,69.01,33.09,69.01,73.92-30.9,73.92-69.01,73.92Z"/>
          <path class="cls-9" d="M2300.12,628.39c.94-6.39,1.44-12.85,1.44-19.35,0-7.13-.71-14.08-1.8-20.89-9.6-59.75-59.4-105.48-119.4-105.48-66.83,0-121.19,56.69-121.19,126.38s54.46,122.79,121.19,126.38c61.4,3.3,103.86-33.95,103.86-33.95l-25.9-44.21s-30.93,28.94-77.96,24.04c-30.59-3.19-56.68-22.44-64.56-52.91h184.32ZM2116.17,588.15c8.34-29.69,33.95-51.37,64.19-51.37s55.85,21.68,64.19,51.37h-128.39Z"/>
          <path class="cls-9" d="M1523.74,735.62h57.96l-143.43-318.28h-54.03l-143.42,318.28h57.96l27.86-61.4h169.24l27.86,61.4ZM1347.15,629.03l33.65-74.16c9.82-21.28,19.98-46.66,30.46-76.13l4.42,12.28c2.95,7.86,6.96,18.17,12.04,30.95,5.08,12.77,9.74,23.74,14,32.91l33.66,74.16h-128.22Z"/>
        </g>
        <g>
          <path class="cls-10" d="M872.24,809.24c23.93,21.71,60.95,19.76,82.48-4.32h0c9.16-26.69,7.92-56.76-5.47-83.63l-218.8-439.06c-13.96-28.02-42.57-45.73-73.88-45.73h-113.88c-20.79,0-40.36,7.85-55.27,21.3,33.42-10.1,69.26,5.36,84.84,36.62l220.73,442.94h0s0,0,0,0l79.25,71.88Z"/>
          <path class="cls-3" d="M572.27,294.42l27.37,54.93,27.37-54.93c15.58-31.26,51.42-46.72,84.84-36.62-14.91-13.45-34.48-21.3-55.27-21.3h-113.88s-.02,0-.04,0c-2.34,0-4.66.13-6.97.33-.66.06-1.31.14-1.96.21-1.77.19-3.52.44-5.25.74-.59.1-1.17.2-1.75.31-4.64.92-9.18,2.22-13.55,3.9-.3.11-.58.24-.88.35-2.02.8-4.01,1.68-5.95,2.64-.2.1-.4.19-.6.29-6.63,3.33-12.8,7.53-18.33,12.52,0,0,0,0,0,0,33.42-10.1,69.26,5.36,84.84,36.62Z"/>
          <path class="cls-7" d="M872.24,809.24l-79.25-71.88-83.95-76.15c-62.07-56.31-156.74-56.31-218.81,0h0l-38.28,34.72c25.27-17.7,59.42-15.55,82.26,5.18l213.22,193.41c17.62,15.98,40.48,23.3,62.96,21.73,14.88-1.04,29.59-5.94,42.51-14.93l61.21-42.6h0c19.54-13.6,33.34-32.64,40.6-53.8-21.52,24.08-58.55,26.03-82.48,4.32Z"/>
          <path class="cls-5" d="M534.21,701.11l65.42,59.35,65.42-59.35c22.85-20.72,57-22.87,82.26-5.18l-38.28-34.72c-62.07-56.31-156.74-56.31-218.81,0l-38.28,34.72h0c25.26-17.7,59.42-15.55,82.26,5.18Z"/>
          <path class="cls-8" d="M244.56,804.92c7.26,21.16,21.06,40.2,40.6,53.8h0s61.21,42.6,61.21,42.6c12.92,8.99,27.63,13.89,42.51,14.93-31.11-18.9-42.6-58.49-26.34-91.11l43.74-87.78h0l193.36-388.01-27.37-54.93c-15.58-31.26-51.42-46.72-84.84-36.62-7.54,6.8-13.91,15.02-18.6,24.43l-218.8,439.06c-13.39,26.87-14.63,56.94-5.47,83.63"/>
          <path class="cls-6" d="M346.37,901.32c12.92,8.99,27.63,13.89,42.51,14.93-31.11-18.9-42.6-58.49-26.34-91.11l43.74-87.78"/>
          <path class="cls-1" d="M534.21,701.11c-22.85-20.72-57-22.87-82.26-5.18l-45.67,41.43h0l-43.74,87.78c-16.26,32.62-4.77,72.22,26.34,91.11h0c22.48,1.58,45.34-5.74,62.96-21.73l147.79-134.07-65.42-59.35Z"/>
          <path class="cls-2" d="M362.54,825.14l43.74-87.78-79.25,71.88c-23.93,21.71-60.95,19.76-82.48-4.32,7.26,21.16,21.06,40.2,40.6,53.8h0s61.21,42.6,61.21,42.6c12.92,8.99,27.63,13.89,42.51,14.93-31.11-18.9-42.6-58.49-26.34-91.11Z"/>
          <path class="cls-4" d="M810.39,916.25c14.88-1.04,29.59-5.94,42.51-14.93l61.21-42.6h0c19.54-13.6,33.34-32.64,40.6-53.8-21.52,24.08-58.55,26.03-82.48,4.32l-79.25-71.88h0s43.74,87.78,43.74,87.78c16.26,32.62,4.77,72.22-26.34,91.11Z"/>
        </g>
      </g>
      <rect class="cls-6" x="0" y="0" width="4281.66" height="1176.29"/>
    </g>
  </g>
</svg>